<?xml version="1.0" encoding="utf-8"?>
<!DOCTYPE svg PUBLIC "-//W3C//DTD SVG 1.1//EN"
"http://www.w3.org/Graphics/SVG/1.1/DTD/svg11.dtd">
<svg width="500" height="500" version="1.1"
xmlns="http://www.w3.org/2000/svg">
<circle cx="431" cy="466" r="3" stroke="black" stroke-width="3" fill="black"/>
<circle cx="138" cy="152" r="3" stroke="black" stroke-width="3" fill="black"/>
<circle cx="390" cy="469" r="3" stroke="black" stroke-width="3" fill="black"/>
<circle cx="334" cy="70" r="3" stroke="black" stroke-width="3" fill="black"/>
<circle cx="13" cy="230" r="3" stroke="black" stroke-width="3" fill="black"/>
<circle cx="217" cy="9" r="3" stroke="black" stroke-width="3" fill="black"/>
<circle cx="112" cy="326" r="3" stroke="black" stroke-width="3" fill="black"/>
<circle cx="63" cy="156" r="3" stroke="black" stroke-width="3" fill="black"/>
<circle cx="227" cy="238" r="3" stroke="black" stroke-width="3" fill="black"/>
<circle cx="414" cy="282" r="3" stroke="black" stroke-width="3" fill="black"/>
<circle cx="494" cy="16" r="3" stroke="black" stroke-width="3" fill="black"/>
<circle cx="113" cy="178" r="3" stroke="black" stroke-width="3" fill="black"/>
<circle cx="394" cy="136" r="3" stroke="black" stroke-width="3" fill="black"/>
<circle cx="36" cy="482" r="3" stroke="black" stroke-width="3" fill="black"/>
<circle cx="231" cy="119" r="3" stroke="black" stroke-width="3" fill="black"/>
<circle cx="321" cy="15" r="3" stroke="black" stroke-width="3" fill="black"/>
<circle cx="437" cy="311" r="3" stroke="black" stroke-width="3" fill="black"/>
<circle cx="167" cy="327" r="3" stroke="black" stroke-width="3" fill="black"/>
<circle cx="280" cy="353" r="3" stroke="black" stroke-width="3" fill="black"/>
<circle cx="249" cy="294" r="3" stroke="black" stroke-width="3" fill="black"/>
<circle cx="83" cy="466" r="3" stroke="black" stroke-width="3" fill="black"/>
<circle cx="155" cy="47" r="3" stroke="black" stroke-width="3" fill="black"/>
<circle cx="145" cy="218" r="3" stroke="black" stroke-width="3" fill="black"/>
<circle cx="55" cy="224" r="3" stroke="black" stroke-width="3" fill="black"/>
<circle cx="309" cy="470" r="3" stroke="black" stroke-width="3" fill="black"/>
<circle cx="358" cy="155" r="3" stroke="black" stroke-width="3" fill="black"/>
<circle cx="338" cy="471" r="3" stroke="black" stroke-width="3" fill="black"/>
<circle cx="334" cy="233" r="3" stroke="black" stroke-width="3" fill="black"/>
<circle cx="459" cy="222" r="3" stroke="black" stroke-width="3" fill="black"/>
<circle cx="67" cy="43" r="3" stroke="black" stroke-width="3" fill="black"/>
<circle cx="342" cy="240" r="3" stroke="black" stroke-width="3" fill="black"/>
<circle cx="410" cy="131" r="3" stroke="black" stroke-width="3" fill="black"/>
<circle cx="52" cy="77" r="3" stroke="black" stroke-width="3" fill="black"/>
<circle cx="459" cy="184" r="3" stroke="black" stroke-width="3" fill="black"/>
<circle cx="282" cy="208" r="3" stroke="black" stroke-width="3" fill="black"/>
<circle cx="330" cy="218" r="3" stroke="black" stroke-width="3" fill="black"/>
<circle cx="27" cy="338" r="3" stroke="black" stroke-width="3" fill="black"/>
<circle cx="117" cy="24" r="3" stroke="black" stroke-width="3" fill="black"/>
<circle cx="56" cy="173" r="3" stroke="black" stroke-width="3" fill="black"/>
<circle cx="248" cy="217" r="3" stroke="black" stroke-width="3" fill="black"/>
<circle cx="495" cy="107" r="3" stroke="black" stroke-width="3" fill="black"/>
<circle cx="373" cy="333" r="3" stroke="black" stroke-width="3" fill="black"/>
<circle cx="430" cy="59" r="3" stroke="black" stroke-width="3" fill="black"/>
<circle cx="418" cy="242" r="3" stroke="black" stroke-width="3" fill="black"/>
<circle cx="133" cy="486" r="3" stroke="black" stroke-width="3" fill="black"/>
<circle cx="285" cy="327" r="3" stroke="black" stroke-width="3" fill="black"/>
<circle cx="78" cy="47" r="3" stroke="black" stroke-width="3" fill="black"/>
<circle cx="459" cy="482" r="3" stroke="black" stroke-width="3" fill="black"/>
<circle cx="476" cy="270" r="3" stroke="black" stroke-width="3" fill="black"/>
<circle cx="167" cy="258" r="3" stroke="black" stroke-width="3" fill="black"/>
<circle cx="330" cy="349" r="3" stroke="black" stroke-width="3" fill="black"/>
<circle cx="328" cy="209" r="3" stroke="black" stroke-width="3" fill="black"/>
<circle cx="187" cy="446" r="3" stroke="black" stroke-width="3" fill="black"/>
<circle cx="233" cy="96" r="3" stroke="black" stroke-width="3" fill="black"/>
<circle cx="119" cy="482" r="3" stroke="black" stroke-width="3" fill="black"/>
<circle cx="313" cy="114" r="3" stroke="black" stroke-width="3" fill="black"/>
<circle cx="441" cy="38" r="3" stroke="black" stroke-width="3" fill="black"/>
<circle cx="299" cy="371" r="3" stroke="black" stroke-width="3" fill="black"/>
<circle cx="449" cy="218" r="3" stroke="black" stroke-width="3" fill="black"/>
<circle cx="465" cy="83" r="3" stroke="black" stroke-width="3" fill="black"/>
<circle cx="204" cy="102" r="3" stroke="black" stroke-width="3" fill="black"/>
<circle cx="410" cy="134" r="3" stroke="black" stroke-width="3" fill="black"/>
<circle cx="149" cy="221" r="3" stroke="black" stroke-width="3" fill="black"/>
<circle cx="117" cy="125" r="3" stroke="black" stroke-width="3" fill="black"/>
<circle cx="491" cy="284" r="3" stroke="black" stroke-width="3" fill="black"/>
<circle cx="384" cy="322" r="3" stroke="black" stroke-width="3" fill="black"/>
<circle cx="133" cy="212" r="3" stroke="black" stroke-width="3" fill="black"/>
<circle cx="383" cy="321" r="3" stroke="black" stroke-width="3" fill="black"/>
<circle cx="10" cy="117" r="3" stroke="black" stroke-width="3" fill="black"/>
<circle cx="417" cy="129" r="3" stroke="black" stroke-width="3" fill="black"/>
<circle cx="451" cy="82" r="3" stroke="black" stroke-width="3" fill="black"/>
<circle cx="95" cy="392" r="3" stroke="black" stroke-width="3" fill="black"/>
<circle cx="121" cy="395" r="3" stroke="black" stroke-width="3" fill="black"/>
<circle cx="115" cy="70" r="3" stroke="black" stroke-width="3" fill="black"/>
<circle cx="465" cy="433" r="3" stroke="black" stroke-width="3" fill="black"/>
<circle cx="5" cy="21" r="3" stroke="black" stroke-width="3" fill="black"/>
<circle cx="35" cy="416" r="3" stroke="black" stroke-width="3" fill="black"/>
<circle cx="155" cy="185" r="3" stroke="black" stroke-width="3" fill="black"/>
<circle cx="137" cy="272" r="3" stroke="black" stroke-width="3" fill="black"/>
<circle cx="310" cy="481" r="3" stroke="black" stroke-width="3" fill="black"/>
<circle cx="408" cy="46" r="3" stroke="black" stroke-width="3" fill="black"/>
<circle cx="155" cy="42" r="3" stroke="black" stroke-width="3" fill="black"/>
<circle cx="111" cy="38" r="3" stroke="black" stroke-width="3" fill="black"/>
<circle cx="215" cy="121" r="3" stroke="black" stroke-width="3" fill="black"/>
<circle cx="7" cy="484" r="3" stroke="black" stroke-width="3" fill="black"/>
<circle cx="103" cy="458" r="3" stroke="black" stroke-width="3" fill="black"/>
<circle cx="418" cy="50" r="3" stroke="black" stroke-width="3" fill="black"/>
<circle cx="202" cy="391" r="3" stroke="black" stroke-width="3" fill="black"/>
<circle cx="445" cy="318" r="3" stroke="black" stroke-width="3" fill="black"/>
<circle cx="314" cy="262" r="3" stroke="black" stroke-width="3" fill="black"/>
<circle cx="251" cy="319" r="3" stroke="black" stroke-width="3" fill="black"/>
<circle cx="283" cy="138" r="3" stroke="black" stroke-width="3" fill="black"/>
<circle cx="87" cy="439" r="3" stroke="black" stroke-width="3" fill="black"/>
<circle cx="323" cy="77" r="3" stroke="black" stroke-width="3" fill="black"/>
<circle cx="211" cy="486" r="3" stroke="black" stroke-width="3" fill="black"/>
<circle cx="58" cy="120" r="3" stroke="black" stroke-width="3" fill="black"/>
<circle cx="384" cy="65" r="3" stroke="black" stroke-width="3" fill="black"/>
<circle cx="14" cy="495" r="3" stroke="black" stroke-width="3" fill="black"/>
<circle cx="455" cy="81" r="3" stroke="black" stroke-width="3" fill="black"/>
<circle cx="469" cy="463" r="3" stroke="black" stroke-width="3" fill="black"/>
<circle cx="417" cy="72" r="3" stroke="black" stroke-width="3" fill="black"/>
<circle cx="421" cy="187" r="3" stroke="black" stroke-width="3" fill="black"/>
<circle cx="122" cy="476" r="3" stroke="black" stroke-width="3" fill="black"/>
<circle cx="79" cy="420" r="3" stroke="black" stroke-width="3" fill="black"/>
<circle cx="294" cy="393" r="3" stroke="black" stroke-width="3" fill="black"/>
<circle cx="182" cy="397" r="3" stroke="black" stroke-width="3" fill="black"/>
<circle cx="212" cy="466" r="3" stroke="black" stroke-width="3" fill="black"/>
<circle cx="35" cy="152" r="3" stroke="black" stroke-width="3" fill="black"/>
<circle cx="257" cy="211" r="3" stroke="black" stroke-width="3" fill="black"/>
<circle cx="229" cy="320" r="3" stroke="black" stroke-width="3" fill="black"/>
<circle cx="49" cy="139" r="3" stroke="black" stroke-width="3" fill="black"/>
<circle cx="292" cy="433" r="3" stroke="black" stroke-width="3" fill="black"/>
<circle cx="204" cy="306" r="3" stroke="black" stroke-width="3" fill="black"/>
<circle cx="429" cy="159" r="3" stroke="black" stroke-width="3" fill="black"/>
<circle cx="239" cy="250" r="3" stroke="black" stroke-width="3" fill="black"/>
<circle cx="474" cy="8" r="3" stroke="black" stroke-width="3" fill="black"/>
<circle cx="322" cy="248" r="3" stroke="black" stroke-width="3" fill="black"/>
<circle cx="196" cy="296" r="3" stroke="black" stroke-width="3" fill="black"/>
<circle cx="224" cy="275" r="3" stroke="black" stroke-width="3" fill="black"/>
<circle cx="216" cy="370" r="3" stroke="black" stroke-width="3" fill="black"/>
<circle cx="20" cy="251" r="3" stroke="black" stroke-width="3" fill="black"/>
<circle cx="119" cy="84" r="3" stroke="black" stroke-width="3" fill="black"/>
<circle cx="69" cy="6" r="3" stroke="black" stroke-width="3" fill="black"/>
<circle cx="236" cy="326" r="3" stroke="black" stroke-width="3" fill="black"/>
<circle cx="217" cy="465" r="3" stroke="black" stroke-width="3" fill="black"/>
<circle cx="146" cy="266" r="3" stroke="black" stroke-width="3" fill="black"/>
<circle cx="456" cy="439" r="3" stroke="black" stroke-width="3" fill="black"/>
<circle cx="52" cy="160" r="3" stroke="black" stroke-width="3" fill="black"/>
<circle cx="97" cy="333" r="3" stroke="black" stroke-width="3" fill="black"/>
<circle cx="172" cy="189" r="3" stroke="black" stroke-width="3" fill="black"/>
<circle cx="83" cy="498" r="3" stroke="black" stroke-width="3" fill="black"/>
<circle cx="49" cy="405" r="3" stroke="black" stroke-width="3" fill="black"/>
<circle cx="246" cy="245" r="3" stroke="black" stroke-width="3" fill="black"/>
<circle cx="53" cy="470" r="3" stroke="black" stroke-width="3" fill="black"/>
<circle cx="372" cy="122" r="3" stroke="black" stroke-width="3" fill="black"/>
<circle cx="340" cy="392" r="3" stroke="black" stroke-width="3" fill="black"/>
<circle cx="373" cy="459" r="3" stroke="black" stroke-width="3" fill="black"/>
<circle cx="477" cy="294" r="3" stroke="black" stroke-width="3" fill="black"/>
<circle cx="466" cy="65" r="3" stroke="black" stroke-width="3" fill="black"/>
<circle cx="120" cy="35" r="3" stroke="black" stroke-width="3" fill="black"/>
<circle cx="383" cy="118" r="3" stroke="black" stroke-width="3" fill="black"/>
<circle cx="154" cy="339" r="3" stroke="black" stroke-width="3" fill="black"/>
<circle cx="409" cy="206" r="3" stroke="black" stroke-width="3" fill="black"/>
<circle cx="352" cy="359" r="3" stroke="black" stroke-width="3" fill="black"/>
<circle cx="39" cy="376" r="3" stroke="black" stroke-width="3" fill="black"/>
<circle cx="400" cy="474" r="3" stroke="black" stroke-width="3" fill="black"/>
<circle cx="374" cy="449" r="3" stroke="black" stroke-width="3" fill="black"/>
<circle cx="379" cy="121" r="3" stroke="black" stroke-width="3" fill="black"/>
<circle cx="195" cy="284" r="3" stroke="black" stroke-width="3" fill="black"/>
<circle cx="91" cy="67" r="3" stroke="black" stroke-width="3" fill="black"/>
<circle cx="406" cy="284" r="3" stroke="black" stroke-width="3" fill="black"/>
<circle cx="312" cy="279" r="3" stroke="black" stroke-width="3" fill="black"/>
<circle cx="95" cy="141" r="3" stroke="black" stroke-width="3" fill="black"/>
<circle cx="425" cy="413" r="3" stroke="black" stroke-width="3" fill="black"/>
<circle cx="206" cy="397" r="3" stroke="black" stroke-width="3" fill="black"/>
<circle cx="301" cy="89" r="3" stroke="black" stroke-width="3" fill="black"/>
<circle cx="16" cy="455" r="3" stroke="black" stroke-width="3" fill="black"/>
<circle cx="429" cy="277" r="3" stroke="black" stroke-width="3" fill="black"/>
<circle cx="13" cy="133" r="3" stroke="black" stroke-width="3" fill="black"/>
<circle cx="136" cy="404" r="3" stroke="black" stroke-width="3" fill="black"/>
<circle cx="9" cy="36" r="3" stroke="black" stroke-width="3" fill="black"/>
<circle cx="378" cy="383" r="3" stroke="black" stroke-width="3" fill="black"/>
<circle cx="486" cy="109" r="3" stroke="black" stroke-width="3" fill="black"/>
<circle cx="4" cy="33" r="3" stroke="black" stroke-width="3" fill="black"/>
<circle cx="393" cy="448" r="3" stroke="black" stroke-width="3" fill="black"/>
<circle cx="452" cy="300" r="3" stroke="black" stroke-width="3" fill="black"/>
<circle cx="84" cy="264" r="3" stroke="black" stroke-width="3" fill="black"/>
<circle cx="431" cy="179" r="3" stroke="black" stroke-width="3" fill="black"/>
<circle cx="405" cy="357" r="3" stroke="black" stroke-width="3" fill="black"/>
<circle cx="445" cy="464" r="3" stroke="black" stroke-width="3" fill="black"/>
<circle cx="106" cy="246" r="3" stroke="black" stroke-width="3" fill="black"/>
<circle cx="53" cy="122" r="3" stroke="black" stroke-width="3" fill="black"/>
<circle cx="201" cy="334" r="3" stroke="black" stroke-width="3" fill="black"/>
<circle cx="252" cy="66" r="3" stroke="black" stroke-width="3" fill="black"/>
<circle cx="467" cy="240" r="3" stroke="black" stroke-width="3" fill="black"/>
<circle cx="470" cy="476" r="3" stroke="black" stroke-width="3" fill="black"/>
<circle cx="129" cy="348" r="3" stroke="black" stroke-width="3" fill="black"/>
<circle cx="212" cy="467" r="3" stroke="black" stroke-width="3" fill="black"/>
<circle cx="457" cy="216" r="3" stroke="black" stroke-width="3" fill="black"/>
<circle cx="0" cy="202" r="3" stroke="black" stroke-width="3" fill="black"/>
<circle cx="16" cy="304" r="3" stroke="black" stroke-width="3" fill="black"/>
<circle cx="354" cy="100" r="3" stroke="black" stroke-width="3" fill="black"/>
<circle cx="69" cy="286" r="3" stroke="black" stroke-width="3" fill="black"/>
<circle cx="280" cy="326" r="3" stroke="black" stroke-width="3" fill="black"/>
<circle cx="495" cy="225" r="3" stroke="black" stroke-width="3" fill="black"/>
<circle cx="290" cy="101" r="3" stroke="black" stroke-width="3" fill="black"/>
<circle cx="323" cy="196" r="3" stroke="black" stroke-width="3" fill="black"/>
<circle cx="76" cy="24" r="3" stroke="black" stroke-width="3" fill="black"/>
<circle cx="30" cy="328" r="3" stroke="black" stroke-width="3" fill="black"/>
<circle cx="90" cy="350" r="3" stroke="black" stroke-width="3" fill="black"/>
<circle cx="420" cy="412" r="3" stroke="black" stroke-width="3" fill="black"/>
<circle cx="178" cy="49" r="3" stroke="black" stroke-width="3" fill="black"/>
<circle cx="260" cy="390" r="3" stroke="black" stroke-width="3" fill="black"/>
<circle cx="16" cy="69" r="3" stroke="black" stroke-width="3" fill="black"/>
<circle cx="459" cy="368" r="3" stroke="black" stroke-width="3" fill="black"/>
<circle cx="123" cy="475" r="3" stroke="black" stroke-width="3" fill="black"/>
<circle cx="173" cy="478" r="3" stroke="black" stroke-width="3" fill="black"/>
<circle cx="428" cy="94" r="3" stroke="black" stroke-width="3" fill="black"/>
<circle cx="264" cy="60" r="3" stroke="black" stroke-width="3" fill="black"/>
<circle cx="420" cy="111" r="3" stroke="black" stroke-width="3" fill="black"/>
<circle cx="285" cy="63" r="3" stroke="black" stroke-width="3" fill="black"/>
<circle cx="64" cy="108" r="3" stroke="black" stroke-width="3" fill="black"/>
<circle cx="259" cy="140" r="3" stroke="black" stroke-width="3" fill="black"/>
<circle cx="484" cy="141" r="3" stroke="black" stroke-width="3" fill="black"/>
<circle cx="320" cy="426" r="3" stroke="black" stroke-width="3" fill="black"/>
<circle cx="343" cy="241" r="3" stroke="black" stroke-width="3" fill="black"/>
<circle cx="338" cy="22" r="3" stroke="black" stroke-width="3" fill="black"/>
<circle cx="142" cy="450" r="3" stroke="black" stroke-width="3" fill="black"/>
<circle cx="264" cy="159" r="3" stroke="black" stroke-width="3" fill="black"/>
<circle cx="371" cy="75" r="3" stroke="black" stroke-width="3" fill="black"/>
<circle cx="379" cy="346" r="3" stroke="black" stroke-width="3" fill="black"/>
<circle cx="51" cy="52" r="3" stroke="black" stroke-width="3" fill="black"/>
<circle cx="324" cy="331" r="3" stroke="black" stroke-width="3" fill="black"/>
<circle cx="146" cy="440" r="3" stroke="black" stroke-width="3" fill="black"/>
<circle cx="391" cy="419" r="3" stroke="black" stroke-width="3" fill="black"/>
<circle cx="51" cy="176" r="3" stroke="black" stroke-width="3" fill="black"/>
<circle cx="482" cy="468" r="3" stroke="black" stroke-width="3" fill="black"/>
<circle cx="136" cy="93" r="3" stroke="black" stroke-width="3" fill="black"/>
<circle cx="108" cy="472" r="3" stroke="black" stroke-width="3" fill="black"/>
<circle cx="234" cy="281" r="3" stroke="black" stroke-width="3" fill="black"/>
<circle cx="250" cy="78" r="3" stroke="black" stroke-width="3" fill="black"/>
<circle cx="22" cy="440" r="3" stroke="black" stroke-width="3" fill="black"/>
<circle cx="452" cy="164" r="3" stroke="black" stroke-width="3" fill="black"/>
<circle cx="242" cy="216" r="3" stroke="black" stroke-width="3" fill="black"/>
<circle cx="175" cy="465" r="3" stroke="black" stroke-width="3" fill="black"/>
<circle cx="292" cy="55" r="3" stroke="black" stroke-width="3" fill="black"/>
<circle cx="311" cy="195" r="3" stroke="black" stroke-width="3" fill="black"/>
<circle cx="459" cy="136" r="3" stroke="black" stroke-width="3" fill="black"/>
<circle cx="26" cy="106" r="3" stroke="black" stroke-width="3" fill="black"/>
<circle cx="76" cy="417" r="3" stroke="black" stroke-width="3" fill="black"/>
<circle cx="377" cy="480" r="3" stroke="black" stroke-width="3" fill="black"/>
<circle cx="445" cy="211" r="3" stroke="black" stroke-width="3" fill="black"/>
<circle cx="448" cy="433" r="3" stroke="black" stroke-width="3" fill="black"/>
<circle cx="304" cy="408" r="3" stroke="black" stroke-width="3" fill="black"/>
<circle cx="257" cy="390" r="3" stroke="black" stroke-width="3" fill="black"/>
<circle cx="189" cy="7" r="3" stroke="black" stroke-width="3" fill="black"/>
<circle cx="320" cy="63" r="3" stroke="black" stroke-width="3" fill="black"/>
<circle cx="447" cy="272" r="3" stroke="black" stroke-width="3" fill="black"/>
<circle cx="228" cy="41" r="3" stroke="black" stroke-width="3" fill="black"/>
<circle cx="341" cy="255" r="3" stroke="black" stroke-width="3" fill="black"/>
<circle cx="6" cy="133" r="3" stroke="black" stroke-width="3" fill="black"/>
<circle cx="310" cy="317" r="3" stroke="black" stroke-width="3" fill="black"/>
<circle cx="180" cy="122" r="3" stroke="black" stroke-width="3" fill="black"/>
<circle cx="305" cy="58" r="3" stroke="black" stroke-width="3" fill="black"/>
<circle cx="80" cy="382" r="3" stroke="black" stroke-width="3" fill="black"/>
<circle cx="475" cy="457" r="3" stroke="black" stroke-width="3" fill="black"/>
<circle cx="214" cy="272" r="3" stroke="black" stroke-width="3" fill="black"/>
<circle cx="168" cy="14" r="3" stroke="black" stroke-width="3" fill="black"/>
<circle cx="205" cy="324" r="3" stroke="black" stroke-width="3" fill="black"/>
<circle cx="274" cy="314" r="3" stroke="black" stroke-width="3" fill="black"/>
</svg>
